<svg width="17" height="17" viewBox="0 0 17 17" fill="none" xmlns="http://www.w3.org/2000/svg">
<path fill-rule="evenodd" clip-rule="evenodd" d="M14.5385 16.5C15.6855 16.5 16.6154 15.6046 16.6154 14.5L16.6152 8.49997C16.6152 4.08152 12.896 0.5 8.30759 0.499999C3.7192 0.499999 -6.94862e-05 4.08152 -6.98725e-05 8.49996L-7.03971e-05 14.5C-7.04936e-05 15.6045 0.929817 16.5 2.07682 16.5L14.5385 16.5ZM13.2925 12.5001C13.2925 12.0582 12.9206 11.7 12.4617 11.7L4.15372 11.7C3.69488 11.7 3.32299 12.0582 3.32299 12.5001C3.32299 12.9419 3.69488 13.3 4.15372 13.3L12.4617 13.3C12.9206 13.3 13.2925 12.9419 13.2925 12.5001ZM11.7356 6.78785C12.1484 6.42093 12.1856 5.78886 11.8187 5.37608C11.4518 4.96329 10.8197 4.92611 10.4069 5.29303L8.30204 7.16402L6.19717 5.29303C5.78439 4.92611 5.15232 4.96329 4.7854 5.37608C4.41848 5.78886 4.45566 6.42093 4.86844 6.78785L7.63767 9.24939C8.01656 9.58618 8.58752 9.58618 8.9664 9.24939L11.7356 6.78785Z" fill="#0A071B"/>
</svg>
